<svg width="42" height="58" viewBox="0 0 42 58" fill="none" xmlns="http://www.w3.org/2000/svg">
<path fill-rule="evenodd" clip-rule="evenodd" d="M2.35868 0H39.6413C40.2663 0.00184227 40.8652 0.249866 41.3071 0.689902C41.749 1.12994 41.9981 1.72623 42 2.34854V55.6515C41.9981 56.2738 41.7489 56.87 41.307 57.3101C40.8651 57.7501 40.2663 57.9981 39.6413 58H2.35868C1.73372 57.9982 1.13487 57.7501 0.692937 57.3101C0.251002 56.8701 0.00188802 56.2738 0 55.6515L0 2.34854C0.00184821 1.72622 0.250948 1.12992 0.692889 0.689877C1.13483 0.249836 1.7337 0.00181949 2.35868 0V0Z" fill="#201600"/>
<path fill-rule="evenodd" clip-rule="evenodd" d="M2.69086 0.290894H39.309C39.9229 0.29271 40.5111 0.536331 40.9451 0.968548C41.3792 1.40076 41.6238 1.98645 41.6256 2.59768V55.3617C41.6238 55.9729 41.3792 56.5586 40.9451 56.9908C40.5111 57.423 39.9229 57.6666 39.309 57.6684H2.69086C2.07702 57.6666 1.48883 57.423 1.05478 56.9908C0.620722 56.5586 0.376073 55.9729 0.374268 55.3617V2.59768C0.37604 1.98644 0.620676 1.40074 1.05474 0.968514C1.4888 0.536291 2.077 0.292679 2.69086 0.290894Z" fill="white"/>
<path fill-rule="evenodd" clip-rule="evenodd" d="M2.69082 1.32483H39.309C39.6479 1.32588 39.9726 1.46043 40.2123 1.69908C40.4519 1.93773 40.587 2.2611 40.5879 2.59857V55.3069C40.5869 55.6443 40.4518 55.9677 40.2122 56.2063C39.9726 56.4449 39.6479 56.5795 39.309 56.5806H2.69082C2.35189 56.5795 2.02712 56.445 1.78744 56.2064C1.54777 55.9678 1.41266 55.6444 1.41162 55.3069V2.59857C1.41262 2.26106 1.54771 1.93765 1.78739 1.69899C2.02707 1.46034 2.35186 1.32582 2.69082 1.32483Z" fill="#4599D8"/>
<path fill-rule="evenodd" clip-rule="evenodd" d="M6.21365 4.76135H35.7668C36.1058 4.76234 36.4306 4.89686 36.6703 5.13551C36.91 5.37417 37.0451 5.69758 37.0461 6.0351V36.0944C37.045 36.4319 36.9099 36.7552 36.6702 36.9939C36.4305 37.2325 36.1058 37.367 35.7668 37.368H6.21365C5.87471 37.367 5.54993 37.2325 5.31025 36.9939C5.07058 36.7552 4.93547 36.4319 4.93445 36.0944V6.0351C4.93543 5.69758 5.07052 5.37416 5.3102 5.1355C5.54989 4.89684 5.87469 4.76233 6.21365 4.76135Z" fill="white"/>
<path d="M30.92 48.6791C30.92 50.4779 30.7108 51.7898 30.2924 52.6147H33.1858V48.6791H30.92ZM29.4556 47.6844H34.7173V52.6147H35.3876V54.9018H34.1093V53.6093H29.3158V54.9018H28.0375V52.6147H28.6827C29.0095 52.0753 29.2213 51.4748 29.3052 50.8504C29.4166 50.0086 29.4669 49.1598 29.4556 48.3108V47.6844Z" fill="white"/>
<path d="M25.0337 51.2656L23.9645 49.0667L22.917 51.2656H25.0337ZM27.9178 53.6093H26.2131L25.5357 52.263H22.4348L21.7956 53.6093H20.1339L23.1555 47.6844H24.8114L27.9178 53.6093Z" fill="white"/>
<path d="M14.3802 47.6844H19.8145V53.6093H18.2488V48.6873H15.9154V51.2173C15.9309 51.725 15.8988 52.233 15.8196 52.7347C15.7916 52.8716 15.7362 53.0015 15.6568 53.1166C15.5773 53.2318 15.4755 53.3299 15.3573 53.4051C15.1117 53.5651 14.7287 53.6451 14.2051 53.6451C14.0226 53.6451 13.6885 53.6328 13.2062 53.6053V52.6795L13.5548 52.6837C13.7801 52.7024 14.0065 52.6679 14.2158 52.583C14.3297 52.5154 14.3857 52.3499 14.3857 52.085L14.3802 51.0669V47.6844Z" fill="white"/>
<path d="M6.44116 47.6844H8.15532V50.2061C8.99603 50.1488 9.71883 49.7775 10.1077 49.0791C10.1374 49.0259 10.8411 47.7348 10.8709 47.6844H12.6641L11.2958 49.6571C11.0049 50.0719 10.5919 50.3867 10.1138 50.558C10.4661 50.6192 10.7941 50.7773 11.0607 51.0146C11.3657 51.3095 11.6399 51.6344 11.8792 51.9843L13.0377 53.6093H11.1142L10.1001 52.0781C10.0853 52.0555 10.0518 52.015 10.0013 51.9525C9.78381 51.6685 9.50501 51.4367 9.18549 51.2744C8.86598 51.112 8.51392 51.0233 8.15532 51.0146V53.6093H6.44116V47.6844Z" fill="white"/>
<path d="M29.4183 42.7291C29.4183 43.3995 29.6175 43.9081 30.0157 44.2547C30.4391 44.6096 30.9801 44.7945 31.5331 44.7734C32.0831 44.7954 32.6214 44.6114 33.0418 44.2575C33.4336 43.914 33.6298 43.3989 33.6306 42.7124C33.6306 42.0339 33.4396 41.5272 33.0576 41.1924C32.6149 40.866 32.0783 40.6903 31.5275 40.6916C30.9766 40.6928 30.4408 40.8709 29.9996 41.1993C29.6134 41.5372 29.4183 42.0462 29.4183 42.7291ZM27.8351 42.7691C27.8168 42.2409 27.9367 41.7171 28.1828 41.2489C28.366 40.9362 28.6065 40.6606 28.892 40.4365C29.1848 40.2011 29.518 40.0207 29.8756 39.9039C30.4067 39.7388 30.961 39.6596 31.5174 39.6694C32.6395 39.6694 33.5371 39.9403 34.2103 40.482C34.8838 41.0227 35.2206 41.7754 35.2206 42.7401C35.2206 43.6974 34.8862 44.446 34.2173 44.9859C33.5489 45.5253 32.656 45.7952 31.5386 45.7957C30.4058 45.7957 29.5052 45.5271 28.8367 44.99C28.1683 44.452 27.8344 43.7117 27.8351 42.7691Z" fill="white"/>
<path d="M23.5782 45.695V40.7729H21.3197V39.7701H27.3703V40.7729H25.1171V45.695H23.5782Z" fill="white"/>
<path d="M16.0841 43.1127V44.6963H17.5058C17.8578 44.7053 18.21 44.6934 18.5606 44.6605C18.766 44.638 18.9601 44.556 19.119 44.4245C19.1904 44.3618 19.2468 44.2841 19.2842 44.197C19.3216 44.1099 19.3391 44.0156 19.3353 43.921C19.339 43.7547 19.2794 43.5931 19.1687 43.4686C19.0386 43.3333 18.8716 43.2388 18.6882 43.1968C18.2379 43.1223 17.7811 43.0941 17.325 43.1127H16.0841ZM16.0841 40.7565V42.1263H17.0909C17.6901 42.1263 18.0625 42.1194 18.2078 42.1056C18.4308 42.0962 18.6462 42.0229 18.8284 41.8946C18.9004 41.8409 18.9585 41.7708 18.9977 41.6902C19.0369 41.6095 19.056 41.5207 19.0535 41.4311C19.0564 41.347 19.0406 41.2633 19.0072 41.186C18.9738 41.1088 18.9236 41.0398 18.8602 40.9842C18.6937 40.8563 18.4909 40.7838 18.2806 40.7772C18.128 40.7634 17.6901 40.7565 16.967 40.7565H16.0841ZM14.5453 39.7702H17.5892C18.0396 39.7624 18.4902 39.7822 18.9382 39.8295C19.2156 39.8624 19.4847 39.9452 19.7325 40.0737C19.9614 40.1936 20.1606 40.3627 20.3156 40.5688C20.4691 40.7672 20.5515 41.011 20.5497 41.2614C20.5486 41.5421 20.4467 41.8131 20.2625 42.0256C20.0546 42.2673 19.7842 42.4476 19.4807 42.5471C19.8814 42.6199 20.2526 42.8062 20.5497 43.0837C20.6693 43.1999 20.7641 43.339 20.8284 43.4925C20.8926 43.6461 20.9251 43.8111 20.9237 43.9775C20.9208 44.2572 20.8371 44.5302 20.6826 44.7639C20.5191 45.0202 20.292 45.2302 20.0232 45.3736C19.7024 45.5373 19.3511 45.6331 18.9913 45.655C18.7361 45.6757 18.118 45.689 17.137 45.695H14.5453V39.7702Z" fill="white"/>
<path d="M10.8467 43.3513L9.79719 41.1524L8.76896 43.3513H10.8467ZM13.6779 45.695H12.0044L11.3396 44.3486H8.29561L7.66817 45.695H6.03711L9.00289 39.7701H10.6286L13.6779 45.695Z" fill="white"/>
<path fill-rule="evenodd" clip-rule="evenodd" d="M20.8435 27.6369C26.2424 27.5808 31.0665 29.2947 35.065 34.4943H37.0461V34.8892H4.93445V34.4943H6.66579C10.3772 30.7052 15.4364 27.6931 20.8435 27.6369ZM34.6546 34.4943C31.4977 30.3566 25.6518 28.8488 20.819 28.9422C16.0169 29.0352 9.89132 31.7078 7.17159 34.4943H34.6546Z" fill="#201600"/>
<path fill-rule="evenodd" clip-rule="evenodd" d="M19.3287 30.3466L18.2203 26.9952L21.3072 26.5289L18.9894 26.3905L18.0107 24.5696L18.6454 24.464L17.7794 22.5972L20.3088 22.1505L18.2434 22.0777L17.4022 20.6898L17.9501 20.5506L16.9017 19.0512L18.5522 18.6183L17.1825 18.6588L16.313 17.5793L16.7285 17.4445L15.5936 16.2743L15.914 16.1466L14.8474 15.1895L16.0633 14.6121L15.024 14.7119L14.7959 14.502C14.0721 16.3039 14.3921 18.239 16.1115 21.0122C12.5982 20.0243 12.1164 18.0571 13.4899 14.7503C11.269 18.4294 9.66749 17.857 9.64283 23.3805C7.69731 19.0405 7.96089 15.6477 13.5635 13.4606C10.4151 14.082 8.50871 14.6013 6.15613 17.4625C6.73134 12.0009 10.7199 10.9415 13.3857 11.9751C12.705 9.58796 14.6849 9.28047 15.1702 7.72546C16.1514 8.79298 14.3863 9.68363 15.2366 11.2241C16.7083 8.33325 19.3881 7.86344 22.3439 8.16295C19.2264 8.85978 18.6971 9.71604 17.3389 11.4147C20.616 9.36045 23.5673 9.27839 25.5122 12.8911C22.4648 11.8217 20.109 11.9137 17.4606 12.7405C20.274 12.5845 22.3766 13.1341 23.2997 15.7366C21.2953 13.6725 18.6741 15.1741 16.0089 13.9455L16.3502 14.476L16.669 14.3246L17.0274 15.3471L16.241 16.0161L17.6736 15.4447L18.1216 16.6721L17.0711 17.3333L18.739 16.7921L19.1559 18.46L19.6765 18.3235L20.0022 19.608L18.5449 20.3994L20.6943 19.8529L21.0744 22.0152L21.5456 21.9319L21.554 23.5546L19.4241 24.3345L22.3575 23.8464L22.2223 26.3905L22.9777 26.2764L22.3626 29.871L19.3287 30.3466Z" fill="#201600"/>
<path fill-rule="evenodd" clip-rule="evenodd" d="M28.1042 18.0856L27.4696 19.4821L29.1129 20.2227L28.5972 21.3576L26.9538 20.6173L26.368 21.9066L28.0117 22.647L27.2922 24.2298C26.999 24.4258 26.7197 24.6417 26.4563 24.876C26.4454 24.8711 23.1175 32.2239 23.1175 32.2239C23.1129 32.2338 23.1092 32.2437 23.1049 32.2537H26.4853C27.4387 30.1619 29.2694 26.1434 29.2614 26.1399C29.2382 26.1292 29.2758 25.636 29.1984 25.0886L29.9179 23.5059L31.5497 24.241C31.5497 24.241 32.9032 24.6798 33.5311 23.5804L30.5037 22.2165L31.0195 21.0813L34.0466 22.4456C34.2898 21.9109 32.4096 20.0256 32.4096 20.0256L28.1042 18.0856Z" fill="#201600"/>
</svg>
